<svg width="21" height="21" viewBox="0 0 21 21" fill="none" xmlns="http://www.w3.org/2000/svg">
<path id="Vector" d="M8.94787 17.7321C10.8455 17.7317 12.6885 17.0965 14.1833 15.9274L18.8832 20.6273L20.3949 19.1156L15.6951 14.4157C16.8647 12.9207 17.5004 11.0773 17.5008 9.17917C17.5008 4.46329 13.6637 0.626221 8.94787 0.626221C4.23199 0.626221 0.394918 4.46329 0.394918 9.17917C0.394918 13.8951 4.23199 17.7321 8.94787 17.7321ZM8.94787 2.76446C12.4856 2.76446 15.3626 5.64146 15.3626 9.17917C15.3626 12.7169 12.4856 15.5939 8.94787 15.5939C5.41015 15.5939 2.53316 12.7169 2.53316 9.17917C2.53316 5.64146 5.41015 2.76446 8.94787 2.76446Z" fill="white"/>
</svg>
